<?xml version="1.0" standalone="no"?>
<!DOCTYPE svg PUBLIC "-//W3C//DTD SVG 20010904//EN"
 "http://www.w3.org/TR/2001/REC-SVG-20010904/DTD/svg10.dtd">
<svg version="1.0" xmlns="http://www.w3.org/2000/svg"
 width="500.000000pt" height="500.000000pt" viewBox="0 0 500.000000 500.000000"
 preserveAspectRatio="xMidYMid meet">

<g transform="translate(0.000000,500.000000) scale(0.100000,-0.100000)"
fill="#000000" stroke="none">
<path d="M2332 4940 c-18 -11 -37 -18 -42 -15 -4 3 -32 -12 -61 -32 -40 -27
-70 -39 -114 -45 -68 -9 -115 -28 -115 -44 0 -8 -30 -12 -87 -13 -48 -1 -108
-6 -132 -12 -65 -14 -141 -58 -141 -81 0 -11 -15 -27 -35 -39 -40 -24 -44 -29
-15 -22 32 8 23 -5 -17 -26 -21 -11 -32 -20 -25 -21 31 -1 -2 -20 -35 -20 -32
0 -34 2 -22 17 13 15 12 15 -9 4 -13 -7 -47 -19 -75 -27 -100 -28 -140 -46
-126 -55 23 -15 105 -10 119 6 9 11 32 15 79 15 69 0 131 25 131 53 0 9 24 13
95 13 74 1 93 -2 85 -11 -6 -7 -29 -15 -51 -19 -22 -3 -37 -10 -34 -15 3 -5
-3 -7 -14 -4 -10 3 -22 0 -25 -6 -5 -8 14 -11 59 -11 l65 0 -17 -26 -16 -26
-188 4 c-103 1 -182 0 -176 -4 6 -4 14 -5 18 -2 4 2 9 -3 13 -11 4 -11 -5 -10
-45 5 -92 37 -136 21 -170 -58 -22 -51 -19 -87 8 -95 29 -9 133 -54 139 -60
12 -11 -67 -39 -101 -35 -24 3 -36 -1 -40 -11 -4 -11 -8 -12 -18 -2 -9 9 -9
14 3 22 11 8 5 9 -22 6 -30 -5 -45 0 -78 24 -45 32 -80 83 -80 114 0 11 9 35
20 53 24 38 10 43 -19 6 -48 -61 -5 -183 79 -230 56 -30 55 -29 18 -76 -19
-23 -42 -63 -51 -88 -23 -63 -47 -220 -37 -245 4 -11 24 -36 44 -54 20 -19 36
-40 36 -47 0 -7 6 -14 13 -17 22 -8 -4 -22 -42 -22 -33 0 -36 -1 -22 -12 9 -7
21 -13 28 -13 7 0 17 -9 23 -21 10 -17 17 -20 51 -14 24 4 39 3 39 -3 0 -19
-51 -71 -102 -104 -43 -28 -47 -34 -29 -36 12 -2 33 4 46 12 38 25 42 19 10
-14 -16 -16 -34 -30 -41 -30 -7 0 -16 -5 -20 -12 -5 -8 5 -9 36 -5 l42 5 -30
-31 c-16 -18 -46 -57 -66 -88 -60 -96 -156 -135 -217 -90 -38 28 -46 23 -19
-12 22 -28 113 -54 150 -42 39 12 81 58 114 124 19 36 43 77 55 91 l20 25 1
-47 c0 -27 5 -48 10 -48 21 0 2 -63 -25 -82 -13 -9 -27 1 -22 16 6 16 -25 17
-35 2 -4 -6 -8 -20 -8 -32 0 -11 -18 -46 -40 -77 -38 -52 -52 -97 -30 -97 5 0
7 7 4 14 -3 9 11 32 37 58 23 24 36 35 29 26 -14 -20 -7 -23 21 -8 11 6 19 7
19 2 0 -6 -9 -12 -20 -15 -27 -7 -25 -21 5 -37 28 -15 30 -23 13 -42 -7 -7
-14 -24 -16 -37 -2 -21 3 -19 39 20 37 40 40 42 35 18 -4 -19 -1 -29 11 -33 9
-4 20 -1 24 6 14 22 20 2 9 -28 -21 -54 -47 -73 -95 -69 -33 3 -45 0 -49 -12
-8 -21 -5 -24 41 -30 28 -4 42 -1 52 11 20 23 28 20 35 -16 6 -30 7 -31 22
-12 15 18 15 18 9 -6 -13 -45 -21 -129 -13 -124 4 3 8 -14 9 -38 l1 -43 10 43
c7 33 18 48 49 69 21 14 39 29 39 32 0 4 13 17 30 29 l30 22 -12 -25 c-6 -14
-16 -25 -21 -25 -6 0 -7 -3 -4 -7 4 -3 -3 -21 -14 -39 -11 -19 -23 -59 -26
-90 l-6 -56 -46 6 -46 7 25 -21 c16 -13 37 -19 59 -18 31 3 36 -1 47 -32 l12
-35 1 32 c1 32 38 73 67 73 7 0 11 6 8 13 -3 8 3 20 12 28 17 14 17 9 -4 -81
-5 -22 -4 -23 9 -10 8 8 19 24 24 35 7 16 10 9 15 -35 4 -30 8 -50 9 -45 1 6
9 -8 17 -30 13 -39 13 -38 9 40 l-5 80 20 -25 21 -25 -16 39 c-18 45 -20 138
-4 169 10 19 9 20 -2 9 -8 -7 -19 -27 -25 -45 l-11 -32 -8 49 c-4 26 -4 51 1
55 5 3 17 23 26 44 10 20 24 37 32 37 8 0 21 3 30 6 12 4 16 0 16 -16 0 -11 3
-19 8 -16 4 2 7 -22 7 -55 0 -33 6 -64 13 -71 16 -16 15 -42 -2 -76 -7 -15
-16 -43 -20 -62 -5 -29 -2 -38 15 -48 12 -8 18 -9 14 -3 -3 6 1 11 9 11 9 0
16 7 16 15 0 8 4 15 10 15 5 0 7 -12 4 -27 -3 -16 -1 -39 5 -53 5 -14 10 -19
10 -12 1 17 41 -8 41 -26 0 -7 7 -15 15 -18 23 -9 30 -68 10 -97 -14 -21 -22
-24 -54 -20 -35 5 -39 2 -77 -47 -47 -63 -99 -95 -331 -206 -316 -152 -462
-212 -474 -192 -7 12 -47 -20 -139 -110 -19 -19 -62 -48 -95 -64 -78 -40 -200
-126 -249 -176 -45 -47 -44 -35 -3 -283 18 -102 26 -188 25 -245 -2 -82 0 -92
25 -130 33 -49 28 -71 -25 -121 -37 -34 -71 -127 -84 -232 l-7 -54 25 6 c31 8
35 0 44 -86 5 -49 2 -74 -14 -117 -18 -49 -72 -234 -72 -245 0 -3 523 -5 1163
-5 l1162 0 0 78 c0 42 4 90 8 106 l8 29 -265 -6 c-165 -4 -266 -2 -266 4 0 5
42 9 93 10 50 0 153 3 227 5 74 2 150 4 168 4 22 0 32 5 32 15 0 13 -36 15
-260 15 -224 0 -260 2 -260 15 0 13 31 15 219 15 120 0 239 3 264 6 44 6 46 8
52 46 4 22 5 41 3 43 -1 1 -155 4 -340 6 -186 2 -338 7 -338 12 0 4 153 7 339
7 330 0 340 1 346 20 3 11 4 24 1 29 -3 5 -157 6 -348 4 -242 -3 -339 -1 -328
6 9 7 88 11 205 11 105 0 254 3 331 7 l142 6 5 36 c3 20 13 110 21 201 9 91
23 233 32 315 8 83 17 186 19 230 5 93 16 144 49 218 l23 53 172 -2 c169 -2
172 -2 180 19 5 13 20 29 35 36 17 9 33 32 45 65 13 37 25 52 40 54 12 2 19 7
16 12 -3 4 3 25 12 46 9 22 15 54 14 72 -3 39 3 41 24 5 l16 -28 -5 30 c-2 17
-8 38 -11 47 -5 12 -1 20 11 25 29 11 46 31 34 38 -7 4 -7 12 -2 18 21 29 33
92 23 120 -14 35 -14 40 -1 32 6 -3 10 -1 10 4 0 14 -16 14 -41 1 -11 -7 -19
-7 -19 -1 0 5 -3 17 -7 26 -5 15 -3 16 17 5 20 -11 22 -10 17 4 -6 14 -4 14
19 -1 62 -40 77 -169 34 -283 -12 -30 -26 -68 -32 -85 -19 -51 -139 -225 -167
-241 -24 -14 -10 -15 148 -10 149 5 176 8 188 23 14 17 14 17 9 0 -4 -14 1
-17 29 -17 30 0 35 3 35 24 0 14 4 28 10 31 6 4 10 -5 10 -19 0 -14 5 -26 10
-26 6 0 10 9 10 20 0 12 7 20 18 20 13 0 14 2 3 9 -10 7 -6 10 16 15 19 5 29
13 30 27 2 16 -3 19 -20 14 -20 -5 -20 -4 2 8 23 14 23 15 5 19 -18 5 -18 5 0
13 22 10 33 -5 41 -57 10 -55 25 -57 25 -2 l0 47 20 -23 c13 -16 20 -18 21 -9
2 24 17 -34 18 -68 1 -32 3 -33 42 -33 30 0 46 6 59 23 17 20 19 20 25 5 12
-30 35 -21 35 12 0 17 -5 30 -11 30 -5 0 -8 4 -5 9 8 12 -12 63 -27 73 -7 4
-19 5 -27 3 -12 -4 -14 5 -12 54 l4 59 -47 21 c-45 20 -58 48 -21 45 12 -1 8
6 -13 28 l-30 31 -65 -47 c-46 -32 -66 -54 -67 -69 0 -12 -7 1 -14 28 l-13 50
-1 -47 c-1 -66 -17 -68 -31 -5 -8 39 -8 62 0 83 6 16 12 31 12 34 1 22 23 40
49 40 19 0 28 4 24 11 -4 6 -14 8 -22 4 -9 -3 -23 1 -32 8 -9 8 -38 22 -66 32
-27 10 -56 23 -64 29 -8 6 -59 38 -115 71 -91 55 -101 64 -104 93 -3 29 1 34
30 47 36 14 58 49 58 91 0 39 28 41 60 5 16 -17 36 -31 44 -31 22 0 20 6 -13
38 -30 28 -50 72 -33 72 5 0 17 -16 27 -36 22 -47 28 -38 15 21 -6 27 -7 52
-2 59 5 6 15 37 22 70 12 52 15 56 27 40 19 -26 29 -8 15 29 -15 43 -15 48 3
41 12 -5 15 4 16 42 1 27 0 61 -1 77 -1 22 3 27 22 27 16 0 27 -9 35 -27 11
-28 24 -229 15 -238 -3 -3 -7 -17 -8 -32 -3 -27 -2 -27 12 -8 9 11 19 19 24
18 4 -1 6 6 3 17 -4 13 4 23 26 34 17 9 31 21 31 27 0 5 -10 3 -22 -5 -26 -18
-38 -20 -38 -7 0 5 9 13 20 16 13 4 23 19 27 37 3 16 12 32 18 35 7 2 16 20
20 39 6 33 28 54 42 40 3 -3 -2 -26 -12 -51 -21 -58 -14 -69 10 -16 l17 40 50
-20 c43 -17 54 -18 79 -7 16 7 29 16 29 21 0 4 -11 35 -25 69 -29 72 -31 98
-9 140 l16 32 14 -27 c8 -15 24 -32 37 -38 21 -12 21 -11 5 8 -10 11 -18 24
-18 30 0 6 -6 14 -12 16 -9 4 -10 8 -3 14 25 20 45 66 51 117 l7 55 32 -24
c34 -27 107 -42 150 -31 35 9 24 22 -24 30 -74 11 -144 98 -145 180 -1 33 -6
42 -30 55 -37 21 -35 34 5 42 59 13 84 40 87 96 3 46 0 53 -29 77 -87 74 -188
95 -262 56 -41 -22 -64 -25 -87 -10 -12 8 -13 12 -2 19 11 6 10 10 -3 15 -15
5 -14 9 9 27 14 11 45 27 68 34 l43 15 -55 -5 c-33 -2 -80 3 -119 13 -73 19
-93 42 -38 42 48 0 67 9 67 30 0 10 7 23 15 30 9 8 15 29 15 56 0 30 5 46 17
53 15 8 13 10 -12 16 -41 8 -78 27 -83 44 -3 10 2 11 18 6 15 -5 20 -4 16 4
-4 6 -17 11 -29 11 -20 1 -20 2 -4 11 9 6 15 14 12 20 -5 7 5 11 35 11 3 1 19
-2 35 -6 17 -4 25 -3 18 1 -18 13 -19 45 -1 56 13 9 21 7 37 -7 12 -11 21 -25
21 -31 0 -12 29 -29 36 -22 20 19 -62 100 -101 100 -14 0 -22 4 -18 10 4 6 -2
8 -17 4 -13 -3 -35 0 -49 7 -14 8 -37 19 -51 24 -23 10 -22 11 15 11 22 1 64
-5 92 -12 50 -13 51 -13 43 7 -5 14 -16 21 -36 22 -130 2 -144 4 -144 19 0 8
-6 15 -14 15 -8 0 -24 9 -37 20 -20 16 -22 21 -9 29 17 12 15 15 -30 34 l-35
15 63 1 c39 1 61 5 57 11 -3 6 -20 10 -37 10 -20 0 -39 9 -54 25 -13 14 -32
25 -44 25 -11 0 -20 5 -20 10 0 6 -5 10 -11 10 -8 0 -10 -14 -6 -40 3 -22 1
-40 -3 -40 -5 0 -12 20 -16 45 -5 34 -11 45 -25 45 -27 0 -32 -17 -9 -37 11
-10 20 -23 20 -29 0 -19 -76 -11 -101 11 -30 28 -72 102 -64 115 3 5 -2 13
-12 17 -57 20 -123 100 -114 138 2 6 -1 7 -4 3 -4 -4 -27 8 -50 28 -29 23 -49
32 -61 28 -14 -4 -15 -3 -5 4 8 6 9 12 3 16 -5 3 -12 -1 -15 -8 -6 -16 17 -41
30 -33 4 3 9 -6 9 -20 2 -24 2 -24 -20 -6 -39 35 -75 53 -93 47 -15 -5 -16 -4
-3 5 13 10 13 13 -2 22 -48 28 2 37 52 9 16 -8 10 1 -18 28 -38 37 -49 42 -88
42 -56 0 -99 -21 -116 -57 -11 -23 -19 -27 -43 -25 -56 6 -86 26 -112 75 -26
47 -37 53 -90 48 -12 -1 -24 3 -28 9 -9 15 -26 12 -63 -10z m77 -45 c11 -19
17 -35 12 -35 -12 0 -27 21 -35 48 -10 32 -1 27 23 -13z m35 3 c17 -24 20 -38
9 -38 -5 0 -16 14 -25 30 -20 35 -7 41 16 8z m12 -65 c19 -26 17 -35 -6 -23
-11 6 -20 17 -20 25 0 20 10 19 26 -2z m252 -44 c-2 -44 -13 -50 -29 -15 -8
17 -8 29 0 45 17 31 32 16 29 -30z m91 25 c14 -12 -19 -1 -35 12 -18 14 -18
14 6 3 14 -6 27 -13 29 -15z m-59 -39 c14 -19 14 -19 -2 -6 -10 7 -18 18 -18
24 0 6 1 8 3 6 1 -2 9 -13 17 -24z m-776 -40 c3 -8 -4 -22 -18 -32 l-23 -17
21 -18 21 -17 -25 -1 c-15 0 -31 5 -37 11 -15 15 -56 1 -49 -17 6 -16 4 -17
-18 -8 -14 5 -14 8 -1 21 21 20 19 37 -2 28 -37 -15 -196 -65 -199 -62 -7 7
49 67 57 61 5 -3 6 -11 3 -17 -4 -7 4 -2 18 11 27 24 61 37 153 57 82 17 92
17 99 0z m490 -14 c3 -4 -22 -14 -57 -21 -34 -7 -79 -24 -100 -37 -22 -13 -41
-22 -45 -19 -7 8 -52 -34 -52 -47 0 -6 12 0 27 14 l27 24 -30 -42 c-16 -23
-31 -37 -32 -32 -2 5 -8 7 -13 3 -16 -10 -9 9 16 42 14 18 25 36 25 40 0 17
35 44 57 44 13 0 34 5 46 12 19 10 70 22 114 27 6 0 14 -3 17 -8z m126 -17
c-18 -21 -81 -46 -103 -40 -10 2 -31 0 -47 -5 -16 -6 -43 -9 -62 -7 l-33 3 38
17 c25 11 53 16 80 13 30 -4 52 0 77 14 46 25 68 27 50 5z m93 -11 c4 -3 3
-10 -2 -17 -6 -7 -8 -16 -4 -19 3 -4 1 -7 -5 -7 -7 0 -12 7 -12 15 0 10 -10
15 -27 15 -26 1 -27 2 -10 15 17 12 35 11 60 -2z m-913 -63 c-8 -5 -22 -10
-30 -10 -13 0 -13 1 0 10 8 5 22 10 30 10 13 0 13 -1 0 -10z m856 -5 c18 -15
16 -16 -21 -10 -22 3 -55 1 -72 -4 -18 -5 -33 -6 -33 -2 0 9 55 28 86 30 11 1
29 -6 40 -14z m148 -30 c-4 -8 -11 -12 -17 -8 -8 5 -7 8 1 11 7 2 9 9 6 14 -4
7 -2 8 4 4 6 -4 9 -13 6 -21z m401 -104 c-3 -2 -12 2 -22 10 -15 12 -16 12 -8
-1 4 -8 17 -27 27 -42 19 -28 25 -84 8 -73 -13 8 -40 72 -40 95 0 9 -11 33
-24 53 -35 51 -18 55 26 5 20 -23 35 -44 33 -47z m-55 5 c0 -6 -7 -2 -15 8 -8
11 -15 25 -15 30 0 6 7 2 15 -8 8 -11 15 -25 15 -30z m-50 14 c0 -5 -4 -10
-10 -10 -5 0 -10 5 -10 10 0 6 5 10 10 10 6 0 10 -4 10 -10z m170 -88 c0 -7
-11 0 -25 16 -14 17 -25 33 -25 38 0 4 11 -3 25 -16 14 -13 25 -30 25 -38z
m-1750 13 c13 -14 19 -25 13 -25 -5 0 -20 11 -33 25 -13 14 -19 25 -13 25 5 0
20 -11 33 -25z m399 16 c19 -12 -13 -22 -54 -16 -16 2 -46 5 -65 6 l-35 2 35
7 c51 11 103 11 119 1z m126 -1 c-11 -5 -29 -9 -40 -9 -17 -1 -17 1 -5 9 8 5
26 9 40 9 23 0 23 -1 5 -9z m1445 0 c0 -5 -4 -10 -10 -10 -5 0 -10 5 -10 10 0
6 5 10 10 10 6 0 10 -4 10 -10z m-1719 -38 c-7 -2 -18 1 -23 6 -8 8 -4 9 13 5
13 -4 18 -8 10 -11z m-48 1 c-7 -2 -21 -2 -30 0 -10 3 -4 5 12 5 17 0 24 -2
18 -5z m92 -3 c3 -5 1 -10 -4 -10 -6 0 -11 5 -11 10 0 6 2 10 4 10 3 0 8 -4
11 -10z m38 -15 c1 -6 -11 -11 -28 -12 -20 -1 -23 0 -7 4 12 2 19 9 16 15 -4
6 -1 9 5 7 7 -3 13 -9 14 -14z m62 -5 c-10 -11 -22 -20 -28 -20 -5 0 1 9 14
20 31 25 37 25 14 0z m1425 0 c6 -11 9 -20 7 -20 -2 0 -12 9 -22 20 -10 11
-13 20 -7 20 6 0 16 -9 22 -20z m-31 -14 c8 -10 9 -16 1 -21 -13 -8 -30 3 -30
21 0 18 14 18 29 0z m182 -3 c13 -16 12 -17 -3 -4 -17 13 -22 21 -14 21 2 0
10 -8 17 -17z m-1961 -28 c0 -12 -29 -3 -34 10 -4 13 -2 14 14 5 11 -6 20 -13
20 -15z m-50 -6 c0 -5 -4 -9 -10 -9 -5 0 -10 7 -10 16 0 8 5 12 10 9 6 -3 10
-10 10 -16z m385 3 c-16 -10 -39 -16 -50 -14 -16 5 -13 8 15 18 52 19 69 16
35 -4z m1295 8 c0 -5 -6 -10 -14 -10 -8 0 -18 5 -21 10 -3 6 3 10 14 10 12 0
21 -4 21 -10z m65 -10 c14 -15 15 -20 4 -20 -8 0 -20 9 -27 20 -7 11 -8 20 -4
20 5 0 17 -9 27 -20z m49 -16 c4 -10 1 -14 -6 -12 -15 5 -23 28 -10 28 5 0 13
-7 16 -16z m44 -60 c5 3 15 -1 22 -9 9 -11 9 -15 1 -15 -7 0 -9 -4 -6 -10 13
-20 -8 -9 -55 31 -27 23 -47 46 -44 51 4 5 21 -5 39 -22 18 -18 38 -30 43 -26z
m-1862 4 c-19 -44 -39 -60 -68 -56 -22 3 -21 5 9 21 18 10 40 31 49 48 21 41
28 31 10 -13z m331 -12 c-1 -6 9 -10 23 -9 14 1 18 0 8 -3 -10 -3 -18 -10 -18
-15 0 -15 -38 13 -43 32 -3 12 1 15 14 12 10 -3 17 -10 16 -17z m-256 -9 c-10
-9 -11 -8 -5 6 3 10 9 15 12 12 3 -3 0 -11 -7 -18z m-41 -17 c-5 -9 -17 -23
-27 -30 -15 -12 -16 -12 -5 0 6 8 12 18 12 23 0 4 -6 5 -12 1 -10 -6 -10 -5
-1 7 18 22 45 21 33 -1z m236 -5 c9 -8 12 -19 9 -25 -9 -15 -25 -12 -25 4 0
27 -37 28 -79 1 -54 -33 -64 -31 -21 5 38 33 91 40 116 15z m1377 -45 c6 -25
-15 -26 -34 -2 -13 15 -12 16 4 3 20 -16 22 -9 5 22 -10 19 -9 20 4 9 9 -7 18
-22 21 -32z m43 9 c20 -22 23 -28 8 -19 -18 11 -50 50 -41 50 2 0 16 -14 33
-31z m-1816 6 c-7 -9 -15 -13 -17 -11 -7 7 7 26 19 26 6 0 6 -6 -2 -15z m368
-5 c4 -13 3 -13 -11 -2 -9 8 -22 10 -28 6 -8 -4 -9 -3 -5 5 10 16 38 10 44 -9z
m1897 -10 c3 -5 1 -10 -4 -10 -6 0 -11 5 -11 10 0 6 2 10 4 10 3 0 8 -4 11
-10z m-2175 -9 c0 -5 -7 -12 -16 -15 -14 -5 -15 -4 -4 9 14 17 20 19 20 6z
m190 -11 c-8 -5 -17 -7 -19 -4 -3 3 1 9 9 14 8 5 17 7 19 4 3 -3 -1 -9 -9 -14z
m150 6 c0 -2 -7 -7 -16 -10 -8 -3 -12 -2 -9 4 6 10 25 14 25 6z m-495 -19 c31
-8 45 -16 37 -21 -7 -4 -19 -3 -26 3 -16 13 -18 12 -86 -73 -37 -46 -46 -52
-48 -36 -4 24 31 84 61 105 19 13 19 15 4 15 -10 0 -15 5 -12 10 8 12 9 12 70
-3z m1940 -17 c17 -19 17 -19 -13 -8 -17 7 -29 16 -26 20 8 13 20 9 39 -12z
m-1582 -15 c-3 -9 -8 -14 -10 -11 -3 3 -2 9 2 15 9 16 15 13 8 -4z m-343 -4
c0 -6 -4 -13 -10 -16 -5 -3 -10 1 -10 9 0 9 5 16 10 16 6 0 10 -4 10 -9z
m2316 -59 c-10 -2 -22 0 -28 6 -6 6 0 7 19 4 21 -5 23 -7 9 -10z m-1156 -108
c30 -8 66 -14 82 -14 15 0 30 -5 33 -10 4 -7 13 -6 26 1 15 7 24 7 34 -1 10
-8 14 -8 17 1 3 9 17 10 56 2 31 -6 52 -6 52 -1 0 9 63 -22 68 -34 2 -3 13
-17 26 -31 14 -15 28 -49 35 -86 8 -38 16 -59 23 -55 6 4 8 -1 4 -13 -4 -11 3
-41 15 -69 23 -50 27 -70 30 -137 2 -37 3 -38 33 -33 81 15 182 24 190 16 4
-4 -16 -13 -45 -18 -30 -5 -128 -24 -219 -41 -119 -23 -197 -33 -281 -34
l-117 -1 25 -33 c36 -47 23 -51 -15 -5 -26 34 -39 41 -94 51 -109 21 -371 82
-421 98 -27 8 -50 13 -52 11 -2 -2 -11 -31 -19 -63 l-15 -60 2 65 1 65 -45 17
c-24 10 -71 28 -103 40 -33 13 -62 29 -64 37 -5 16 0 15 103 -24 39 -14 129
-38 201 -54 141 -29 164 -27 164 18 0 11 5 21 11 21 8 0 8 4 0 13 -6 8 -8 24
-5 38 3 13 7 35 9 49 2 14 11 42 19 62 9 21 16 50 16 67 0 48 59 141 89 141
10 0 24 7 31 15 7 9 20 13 29 10 9 -4 41 -13 71 -21z m-1209 4 c4 -7 6 -33 3
-58 -2 -26 2 -68 11 -95 15 -52 15 -55 -7 -59 -7 -1 -18 -5 -25 -9 -14 -9 -63
19 -63 36 0 6 -3 7 -7 4 -3 -4 -12 -2 -20 4 -9 8 -13 37 -13 94 0 45 2 84 4
86 11 10 110 8 117 -3z m105 -3 c3 -8 -8 -36 -25 -62 -17 -25 -31 -54 -30 -62
0 -9 7 1 17 21 22 49 48 56 55 14 3 -17 1 -35 -4 -40 -5 -6 -9 -15 -9 -20 0
-6 9 3 20 19 11 17 20 26 21 20 2 -31 9 -50 18 -53 6 -2 11 -9 11 -14 0 -6 -3
-8 -7 -5 -3 4 -12 2 -19 -4 -8 -6 -21 -8 -30 -5 -15 6 -15 4 -3 -10 12 -15 10
-16 -21 -9 -60 13 -67 20 -74 84 -9 77 14 141 50 141 14 0 27 -7 30 -15z m408
-11 c3 -8 2 -12 -4 -9 -6 3 -10 10 -10 16 0 14 7 11 14 -7z m516 6 c0 -5 -5
-10 -11 -10 -5 0 -7 5 -4 10 3 6 8 10 11 10 2 0 4 -4 4 -10z m-935 -230 c3 -5
2 -16 -2 -24 -6 -12 -10 -10 -20 10 -9 19 -8 24 2 24 8 0 17 -4 20 -10z m-55
-15 c7 -8 8 -15 2 -15 -5 0 -15 7 -22 15 -7 8 -8 15 -2 15 5 0 15 -7 22 -15z
m138 9 c32 -9 28 -28 -5 -20 -16 4 -33 7 -40 8 -15 2 -6 18 10 18 7 0 22 -3
35 -6z m159 -26 c13 -14 13 -19 -3 -44 -26 -40 -37 -46 -51 -27 -20 26 -16 33
17 33 36 0 40 17 5 26 -13 3 -28 11 -34 17 -15 19 47 13 66 -5z m-347 0 c0 -4
-7 -8 -15 -8 -8 0 -15 4 -15 8 0 5 7 9 15 9 8 0 15 -4 15 -9z m2796 -18 c65
-37 94 -73 94 -116 0 -53 -28 -74 -99 -74 -33 0 -62 4 -65 9 -3 4 -17 6 -31 4
-19 -4 -27 0 -34 20 -5 14 -15 28 -21 32 -5 3 -8 10 -5 15 3 5 1 11 -5 15 -5
3 -10 11 -10 17 0 20 55 -3 103 -43 l47 -40 0 37 c0 21 -3 34 -6 31 -4 -4 -25
10 -48 30 -37 34 -51 65 -39 86 10 16 71 5 119 -23z m-2759 4 c-3 -3 -12 -4
-19 -1 -8 3 -5 6 6 6 11 1 17 -2 13 -5z m118 -4 c-3 -5 3 -10 14 -10 10 0 22
6 24 13 3 6 6 8 6 2 0 -5 -7 -19 -15 -30 -15 -20 -15 -20 -30 -1 -17 23 -18
36 -3 36 5 0 7 -4 4 -10z m112 -46 c-9 -9 -28 6 -21 18 4 6 10 6 17 -1 6 -6 8
-13 4 -17z m181 -46 c2 -9 -4 -18 -13 -21 -11 -5 -15 0 -15 19 0 28 23 29 28
2z m1577 -80 c-12 -39 -25 -44 -25 -10 0 22 5 32 16 32 11 0 14 -6 9 -22z
m-1600 -18 c3 -5 1 -10 -4 -10 -6 0 -11 5 -11 10 0 6 2 10 4 10 3 0 8 -4 11
-10z m2269 -52 c12 -38 15 -68 8 -68 -10 0 -32 45 -32 65 0 18 19 20 24 3z
m-2284 -38 c0 -5 -2 -10 -4 -10 -3 0 -8 5 -11 10 -3 6 -1 10 4 10 6 0 11 -4
11 -10z m2105 0 c12 -5 -5 -7 -45 -3 -36 3 -67 7 -69 9 -9 8 95 2 114 -6z
m295 -40 c8 -19 27 -57 43 -83 31 -50 33 -63 6 -44 -24 18 -78 138 -79 177 0
11 18 -19 30 -50z m-102 -189 c-12 -25 -13 -25 -16 19 -1 25 -7 55 -14 67 -12
24 -2 97 13 88 5 -4 10 0 10 7 1 7 6 -25 11 -71 7 -65 6 -91 -4 -110z m-1795
162 c-7 -2 -19 -2 -25 0 -7 3 -2 5 12 5 14 0 19 -2 13 -5z m70 -10 c-7 -2 -21
-2 -30 0 -10 3 -4 5 12 5 17 0 24 -2 18 -5z m50 -10 c-7 -2 -19 -2 -25 0 -7 3
-2 5 12 5 14 0 19 -2 13 -5z m130 -10 c-13 -2 -33 -2 -45 0 -13 2 -3 4 22 4
25 0 35 -2 23 -4z m70 0 c-7 -2 -19 -2 -25 0 -7 3 -2 5 12 5 14 0 19 -2 13 -5z
m235 0 c-9 -2 -18 -12 -20 -21 -3 -13 -5 -12 -10 6 -5 19 -2 22 20 21 16 -1
20 -3 10 -6z m-21 -65 c-3 -8 -6 -5 -6 6 -1 11 2 17 5 13 3 -3 4 -12 1 -19z
m-233 -13 c-4 -8 -10 -15 -15 -15 -5 0 -9 7 -9 15 0 8 7 15 15 15 9 0 12 -6 9
-15z m1423 -77 c-3 -8 -6 -5 -6 6 -1 11 2 17 5 13 3 -3 4 -12 1 -19z m-1267
-58 c5 0 14 8 19 18 9 15 10 15 11 0 0 -10 12 -19 33 -23 17 -4 51 -20 75 -37
46 -32 45 -32 168 -12 30 5 51 1 82 -14 23 -11 40 -16 36 -11 -3 5 3 9 13 9
12 0 14 3 6 8 -8 5 -8 12 2 25 20 27 30 1 11 -28 -20 -30 -20 -35 -1 -35 8 0
15 7 15 15 0 9 6 12 15 9 9 -4 15 0 15 10 0 9 4 16 9 16 5 0 17 3 26 7 14 5
16 2 12 -13 -3 -10 -8 -37 -12 -59 -8 -61 -13 -71 -40 -85 -14 -7 -25 -22 -25
-32 0 -10 -5 -18 -11 -18 -8 0 -10 -14 -6 -40 4 -33 2 -42 -14 -51 -11 -6 -19
-18 -17 -27 1 -9 -10 -36 -25 -59 -33 -52 -59 -55 -160 -18 -37 13 -65 20 -62
15 3 -5 1 -11 -4 -14 -5 -3 -12 1 -15 10 -5 13 -16 15 -68 9 -34 -4 -81 -8
-105 -9 -40 -1 -87 -25 -53 -27 10 0 7 -4 -5 -9 -11 -5 -42 -6 -69 -3 -39 5
-48 3 -44 -8 6 -19 142 -31 280 -25 100 4 155 -2 187 -23 11 -7 10 -14 -5 -36
-12 -18 -19 -47 -19 -79 0 -45 -3 -51 -22 -54 -13 -2 -23 -9 -23 -16 0 -15
-57 -48 -117 -69 -36 -12 -44 -12 -54 -1 -16 20 -29 17 -29 -6 0 -26 -22 -25
-80 1 -97 44 -140 79 -171 142 -19 36 -29 69 -26 84 2 13 0 26 -4 29 -9 5 -14
-23 -11 -59 1 -10 -3 -15 -8 -12 -6 3 -10 20 -10 37 0 24 -3 28 -14 19 -10 -9
-21 2 -53 51 -64 100 -157 317 -143 332 5 5 5 16 0 26 -5 9 -12 39 -15 66 -10
72 1 79 107 60 94 -16 134 -30 162 -54 10 -9 21 -12 22 -7 2 6 29 9 61 7 68
-4 113 10 120 38 3 11 9 20 13 20 4 0 11 10 15 23 6 19 8 19 12 5 2 -10 8 -18
13 -18z m520 -4 c0 -3 -4 -8 -10 -11 -5 -3 -10 -1 -10 4 0 6 5 11 10 11 6 0
10 -2 10 -4z m-1847 -43 c-3 -7 -11 -13 -19 -13 -17 0 -17 5 -3 32 8 16 13 18
19 8 5 -7 6 -19 3 -27z m301 -118 c-4 -8 -10 -15 -15 -15 -5 0 -9 7 -9 15 0 8
7 15 15 15 9 0 12 -6 9 -15z m66 -15 c0 -5 -4 -10 -10 -10 -5 0 -10 5 -10 10
0 6 5 10 10 10 6 0 10 -4 10 -10z m2090 -100 c0 -32 -3 -61 -7 -63 -5 -3 -8
26 -8 63 0 38 3 66 7 64 4 -3 8 -32 8 -64z m-180 43 c0 -28 -12 -63 -20 -63
-10 0 -19 50 -13 67 8 19 33 16 33 -4z m377 -34 c7 -13 10 -25 7 -28 -5 -5
-54 39 -54 50 0 17 36 0 47 -22z m-61 -6 c-7 -7 -26 7 -26 19 0 6 6 6 15 -2 9
-7 13 -15 11 -17z m-2404 -106 c8 -20 7 -31 -2 -42 -19 -23 -30 -1 -30 57 0
60 14 98 18 48 1 -19 8 -47 14 -63z m-42 -78 c0 -9 -6 -22 -14 -28 -11 -10
-16 -8 -21 9 -4 12 -4 33 0 48 6 26 7 26 21 8 8 -11 14 -27 14 -37z m-53 -1
c-3 -7 -5 -2 -5 12 0 14 2 19 5 13 2 -7 2 -19 0 -25z m-52 -46 c-3 -3 -11 0
-18 7 -9 10 -8 11 6 5 10 -3 15 -9 12 -12z m1935 -29 c0 -25 -1 -26 -16 -11
-9 9 -13 21 -10 27 13 20 26 11 26 -16z m121 -10 c-12 -20 -14 -14 -5 12 4 9
9 14 11 11 3 -2 0 -13 -6 -23z m-33 -8 c26 -30 27 -46 7 -86 -21 -39 -39 -27
-32 22 3 22 1 42 -4 45 -11 7 -12 44 -1 44 5 0 18 -11 30 -25z m-124 -10 c3
-8 1 -15 -4 -15 -6 0 -10 7 -10 15 0 8 2 15 4 15 2 0 6 -7 10 -15z m76 -10 c0
-33 -15 -33 -16 0 -1 14 2 25 7 25 5 0 9 -11 9 -25z m-40 -66 c0 -9 -7 -20
-16 -23 -11 -4 -15 -2 -11 8 3 8 1 17 -6 19 -9 3 -8 8 2 21 11 13 16 14 22 4
5 -7 9 -20 9 -29z m-1432 20 c-2 -6 -8 -10 -13 -10 -5 0 -11 4 -13 10 -2 6 4
11 13 11 9 0 15 -5 13 -11z m62 -8 c0 -5 -7 -14 -15 -21 -16 -14 -18 -10 -9
14 6 17 24 22 24 7z m1510 -41 c0 -17 -9 -38 -22 -50 -39 -36 -51 -23 -18 20
11 14 20 33 20 43 0 9 5 17 10 17 6 0 10 -13 10 -30z m-93 -12 c-3 -8 -6 -5
-6 6 -1 11 2 17 5 13 3 -3 4 -12 1 -19z m-57 -62 c0 -3 -4 -8 -10 -11 -5 -3
-10 -1 -10 4 0 6 5 11 10 11 6 0 10 -2 10 -4z m-1512 -53 c-15 -15 -31 -23
-35 -19 -9 8 32 46 50 46 7 0 -1 -12 -15 -27z m1562 7 c0 -5 -5 -10 -11 -10
-5 0 -7 5 -4 10 3 6 8 10 11 10 2 0 4 -4 4 -10z m102 -212 c-7 -7 -12 -8 -12
-2 0 14 12 26 19 19 2 -3 -1 -11 -7 -17z m-439 -160 c-27 -35 -57 -76 -68 -93
-32 -52 -150 -189 -205 -238 -124 -111 -56 -10 90 133 47 47 116 124 153 173
38 48 71 87 73 87 3 0 -16 -28 -43 -62z m461 -182 c-3 -9 -10 -16 -15 -16 -6
0 -5 9 1 21 13 24 24 20 14 -5z m341 14 c3 -5 2 -10 -4 -10 -5 0 -13 5 -16 10
-3 6 -2 10 4 10 5 0 13 -4 16 -10z m-685 -19 c-5 -11 -15 -23 -21 -27 -6 -3
-3 5 6 20 20 30 30 35 15 7z m156 -27 c-3 -9 -6 -20 -6 -25 0 -5 -4 -9 -10 -9
-11 0 -14 33 -3 43 12 13 25 7 19 -9z m-190 -70 c-4 -14 -10 -23 -15 -20 -4 3
-18 -8 -30 -25 -38 -52 -35 -24 5 38 36 56 53 59 40 7z m311 4 c-3 -8 -6 -5
-6 6 -1 11 2 17 5 13 3 -3 4 -12 1 -19z m-1890 -140 c-3 -8 -6 -5 -6 6 -1 11
2 17 5 13 3 -3 4 -12 1 -19z m883 0 c21 -23 27 -48 11 -48 -9 0 -51 52 -51 64
0 13 20 5 40 -16z m-237 -281 c71 -144 137 -282 148 -306 13 -30 23 -41 34
-37 18 6 19 1 5 -24 -8 -15 -4 -32 18 -77 49 -98 77 -182 64 -195 -9 -9 -12
-5 -12 15 0 20 -78 211 -97 236 -2 2 -19 0 -38 -6 -21 -7 -35 -7 -35 -2 0 5
14 12 30 16 17 3 30 9 30 13 0 17 -57 143 -159 349 -111 227 -136 281 -123
280 4 0 65 -118 135 -262z m-636 231 c-3 -8 -6 -5 -6 6 -1 11 2 17 5 13 3 -3
4 -12 1 -19z m86 -275 c19 -48 51 -124 71 -167 20 -44 34 -81 32 -83 -4 -4
-43 77 -103 211 -32 72 -84 251 -82 286 0 8 11 -24 24 -72 13 -47 39 -126 58
-175z m896 120 c-17 -23 -34 -43 -40 -43 -13 0 22 61 38 67 7 3 11 8 8 12 -2
4 2 8 10 8 9 0 4 -14 -16 -44z m-485 -21 c51 -101 137 -330 135 -361 0 -14 -1
-14 -6 -1 -20 53 -64 142 -69 138 -2 -3 2 -21 10 -39 28 -64 76 -190 76 -202
0 -21 -19 15 -51 100 -17 46 -38 88 -45 94 -11 9 -11 3 2 -26 9 -23 11 -34 3
-30 -10 7 -39 65 -39 79 0 3 6 3 14 0 10 -4 8 12 -11 63 -13 37 -28 70 -32 73
-4 3 -15 24 -24 48 -17 42 -15 68 4 57 12 -8 12 7 -1 40 -16 42 7 20 34 -33z
m649 -7 c-3 -9 -8 -14 -10 -11 -3 3 -2 9 2 15 9 16 15 13 8 -4z m-230 -60 c-3
-9 -8 -14 -10 -11 -3 3 -2 9 2 15 9 16 15 13 8 -4z m-438 -72 c-2 -7 0 -15 4
-18 13 -7 21 -47 9 -43 -6 2 -21 33 -34 68 l-24 65 24 -30 c14 -16 23 -35 21
-42z m495 -37 c0 -2 -8 -10 -17 -17 -16 -13 -17 -12 -4 4 13 16 21 21 21 13z
m-497 -71 c9 -25 14 -45 12 -45 -8 0 -35 59 -35 75 0 26 8 17 23 -30z m457 14
c-7 -11 -14 -18 -17 -15 -3 3 0 12 7 21 18 21 23 19 10 -6z m-220 -99 c0 -5
-7 -10 -15 -10 -8 0 -15 5 -15 10 0 6 7 10 15 10 8 0 15 -4 15 -10z m-156 -32
l16 -33 -20 24 c-11 13 -20 27 -20 32 0 17 9 9 24 -23z m113 -50 c-3 -8 -6 -5
-6 6 -1 11 2 17 5 13 3 -3 4 -12 1 -19z m-427 -33 c0 -5 -5 -3 -10 5 -5 8 -10
20 -10 25 0 6 5 3 10 -5 5 -8 10 -19 10 -25z m420 -70 c0 -5 -5 -3 -10 5 -5 8
-10 20 -10 25 0 6 5 3 10 -5 5 -8 10 -19 10 -25z m171 -67 c8 -15 8 -18 0 -14
-6 4 -16 16 -22 28 -8 15 -8 18 0 14 6 -4 16 -16 22 -28z m-5 -98 c46 5 54 4
52 -9 -2 -12 -21 -17 -78 -21 -81 -6 -95 -4 -68 11 11 6 15 16 11 27 -5 15 -4
16 11 1 12 -11 29 -14 72 -9z m304 -21 c0 -3 -47 -6 -105 -5 -74 1 -105 5
-105 13 0 6 15 13 33 15 40 4 177 -14 177 -23z m-430 -9 c0 -5 -4 -10 -10 -10
-5 0 -10 5 -10 10 0 6 5 10 10 10 6 0 10 -4 10 -10z m-740 -50 c0 -5 -2 -10
-4 -10 -3 0 -8 5 -11 10 -3 6 -1 10 4 10 6 0 11 -4 11 -10z m583 -214 c8 -21
-2 -26 -53 -26 -29 0 -52 6 -60 14 -10 13 -3 15 42 19 29 2 56 4 59 5 4 1 9
-4 12 -12z m-776 -88 c-3 -8 -6 -5 -6 6 -1 11 2 17 5 13 3 -3 4 -12 1 -19z
m50 0 c-3 -8 -6 -5 -6 6 -1 11 2 17 5 13 3 -3 4 -12 1 -19z m733 12 c0 -6 -16
-8 -42 -4 -59 9 -60 14 -5 14 26 0 47 -5 47 -10z m-583 -6 c-9 -9 -127 -10
-127 -1 0 4 30 7 67 7 36 0 64 -3 60 -6z m33 -4 c0 -5 -4 -10 -10 -10 -5 0
-10 5 -10 10 0 6 5 10 10 10 6 0 10 -4 10 -10z m530 -66 c-37 -8 -88 -9 -84
-2 3 4 26 7 52 7 26 -1 40 -3 32 -5z m448 -1 c-32 -2 -86 -2 -120 0 -35 2 -9
3 57 3 66 0 94 -1 63 -3z m-515 -92 l32 -9 -31 -1 c-19 -1 -38 7 -49 19 -15
17 -16 22 -4 36 13 16 14 15 17 -9 3 -20 11 -29 35 -36z"/>
<path d="M3890 3640 c20 -13 33 -13 25 0 -3 6 -14 10 -23 10 -15 0 -15 -2 -2
-10z"/>
<path d="M2641 2805 c-32 -22 -36 -23 -63 -9 -29 15 -93 11 -104 -8 -8 -13 15
-38 36 -38 9 0 25 -9 36 -21 43 -47 75 -45 95 8 7 20 12 21 34 13 15 -6 30
-10 34 -10 13 0 51 40 51 55 0 12 -5 11 -28 -2 -18 -10 -36 -14 -48 -9 -18 7
-18 8 -1 17 9 6 15 14 12 20 -9 13 -16 11 -54 -16z m-61 -51 c0 -17 -22 -14
-28 4 -2 7 3 12 12 12 9 0 16 -7 16 -16z"/>
<path d="M2536 2512 c-22 -2 -50 -12 -64 -22 l-24 -19 32 -20 c25 -15 45 -18
89 -15 126 11 161 16 161 25 0 6 -4 7 -10 4 -5 -3 -10 -2 -10 3 0 5 -12 17
-26 27 -20 13 -28 14 -40 4 -10 -8 -18 -9 -22 -2 -9 13 -39 19 -86 15z"/>
<path d="M1946 1097 c3 -10 9 -15 12 -12 3 3 0 11 -7 18 -10 9 -11 8 -5 -6z"/>
<path d="M3235 4540 c-3 -5 8 -22 25 -38 l30 -30 0 26 c0 19 -8 30 -25 39 -14
6 -27 7 -30 3z"/>
<path d="M1613 4533 c9 -2 23 -2 30 0 6 3 -1 5 -18 5 -16 0 -22 -2 -12 -5z"/>
<path d="M1198 4479 c-18 -10 -25 -29 -10 -29 4 0 18 9 32 20 27 21 10 28 -22
9z"/>
<path d="M3775 4220 c4 -6 11 -8 16 -5 14 9 11 15 -7 15 -8 0 -12 -5 -9 -10z"/>
<path d="M3910 4161 c0 -11 5 -23 10 -26 6 -4 10 5 10 19 0 14 -4 26 -10 26
-5 0 -10 -9 -10 -19z"/>
<path d="M3750 4110 c0 -5 5 -10 10 -10 6 0 10 5 10 10 0 6 -4 10 -10 10 -5 0
-10 -4 -10 -10z"/>
<path d="M3845 4099 c-4 -5 1 -19 11 -30 16 -18 19 -18 27 -4 14 27 -23 60
-38 34z"/>
<path d="M3720 3690 c0 -5 7 -10 15 -10 8 0 15 5 15 10 0 6 -7 10 -15 10 -8 0
-15 -4 -15 -10z"/>
<path d="M1073 3020 c0 -25 2 -35 4 -22 2 12 2 32 0 45 -2 12 -4 2 -4 -23z"/>
<path d="M4075 3050 c-3 -5 -1 -10 4 -10 6 0 11 5 11 10 0 6 -2 10 -4 10 -3 0
-8 -4 -11 -10z"/>
<path d="M1043 3010 c0 -25 2 -35 4 -22 2 12 2 32 0 45 -2 12 -4 2 -4 -23z"/>
<path d="M1550 2756 c0 -9 5 -16 10 -16 6 0 10 4 10 9 0 6 -4 13 -10 16 -5 3
-10 -1 -10 -9z"/>
<path d="M3587 2683 c-11 -10 -8 -73 3 -73 6 0 10 18 10 40 0 41 -2 45 -13 33z"/>
<path d="M1286 2521 c-19 -21 -12 -28 13 -12 7 5 12 14 9 21 -2 7 -10 4 -22
-9z"/>
<path d="M1570 2530 c8 -5 11 -10 6 -10 -5 0 1 -9 14 -20 32 -28 35 -25 10 10
-12 17 -27 30 -33 30 -7 0 -6 -4 3 -10z"/>
<path d="M3371 2435 c0 -5 6 -19 14 -29 8 -11 15 -15 15 -10 0 6 -7 19 -15 30
-8 10 -14 15 -14 9z"/>
<path d="M1495 2399 c-4 -6 -5 -12 -2 -15 2 -3 7 2 10 11 7 17 1 20 -8 4z"/>
<path d="M1470 2361 c0 -6 5 -13 10 -16 6 -3 10 1 10 9 0 9 -4 16 -10 16 -5 0
-10 -4 -10 -9z"/>
<path d="M3650 1581 c0 -11 26 -22 34 -14 12 12 5 23 -14 23 -11 0 -20 -4 -20
-9z"/>
<path d="M4051 801 l-73 -27 83 -13 c104 -16 133 -13 137 15 2 12 17 28 35 37
l32 16 -70 0 c-52 0 -89 -7 -144 -28z m155 11 c-5 -8 -66 -4 -66 4 0 2 16 4
36 4 19 0 33 -4 30 -8z m-21 -32 c0 -16 -63 -22 -100 -10 -19 7 -19 7 3 14 12
4 26 5 31 1 5 -3 13 0 16 5 10 16 50 8 50 -10z"/>
<path d="M4286 338 c-8 -29 -31 -59 -48 -62 -7 -2 -20 -6 -28 -9 -13 -5 -105
-11 -280 -18 -53 -3 -52 -3 20 -9 l75 -6 -80 -3 c-44 -2 -93 -5 -110 -6 -16
-2 -125 -7 -241 -11 -154 -5 -213 -4 -218 5 -5 8 -72 11 -222 11 l-214 0 -2
-22 c0 -13 0 -33 1 -44 1 -20 -3 -22 -71 -23 -40 -1 -76 -5 -81 -10 -18 -18
43 -24 152 -15 111 9 192 5 158 -9 -10 -4 -115 -7 -233 -7 -145 0 -214 -3
-214 -11 0 -6 -7 -3 -16 5 -18 18 -58 22 -52 4 2 -6 12 -12 21 -14 9 -1 24 -9
32 -18 14 -14 14 -18 -1 -41 l-17 -27 194 5 c107 2 206 7 222 11 16 4 27 2 27
-4 0 -15 372 -14 388 2 9 9 12 9 12 0 0 -18 1035 -17 1069 1 14 6 30 26 38 44
l13 32 -53 -4 c-28 -2 -41 -1 -27 2 31 6 50 22 30 25 -43 5 -226 2 -230 -4 -6
-7 -319 -10 -800 -7 -187 1 -293 5 -260 9 30 4 189 8 352 9 456 2 1013 25 988
41 -6 4 -11 11 -11 16 1 5 -20 10 -46 10 -67 2 -70 3 -50 15 9 5 22 7 27 4 6
-3 10 -2 10 4 0 7 -32 9 -91 6 -57 -3 -88 -1 -84 5 4 6 -54 11 -152 13 l-158
3 185 2 c165 2 182 4 163 17 -11 8 -30 35 -42 60 -23 50 -36 56 -45 23z m24
-146 c33 -9 -92 -19 -175 -12 l-60 4 45 7 c65 9 161 10 190 1z m129 -1 c9 -6
-2 -10 -35 -13 -53 -5 -68 -2 -59 13 8 11 75 12 94 0z m-1034 -13 l200 -1
-145 -8 c-80 -5 -175 -9 -212 -9 -55 0 -68 -4 -68 -16 0 -9 -7 -14 -17 -12
-10 2 -18 10 -18 18 0 8 -11 17 -25 19 l-25 4 25 8 c14 4 39 5 55 2 17 -3 120
-5 230 -5z m348 -25 c-7 -2 -19 -2 -25 0 -7 3 -2 5 12 5 14 0 19 -2 13 -5z
m697 -63 c11 -7 2 -10 -33 -10 -30 0 -46 4 -42 10 8 13 55 13 75 0z m-1050
-50 c0 -5 -25 -10 -55 -10 -30 0 -55 5 -55 10 0 6 25 10 55 10 30 0 55 -4 55
-10z m-647 -27 c-7 -2 -19 -2 -25 0 -7 3 -2 5 12 5 14 0 19 -2 13 -5z"/>
</g>
</svg>
