<?xml version="1.0" standalone="no"?>
<!DOCTYPE svg PUBLIC "-//W3C//DTD SVG 20010904//EN"
 "http://www.w3.org/TR/2001/REC-SVG-20010904/DTD/svg10.dtd">
<svg version="1.0" xmlns="http://www.w3.org/2000/svg"
 width="460.000000pt" height="460.000000pt" viewBox="0 0 460.000000 460.000000"
 preserveAspectRatio="xMidYMid meet">

<g transform="translate(0.000000,460.000000) scale(0.100000,-0.100000)"
fill="#000000" stroke="none">
<path d="M2856 4471 c-23 -25 -46 -96 -44 -137 2 -42 -12 -54 -65 -54 -40 0
-71 -12 -97 -38 -13 -14 -15 -14 -19 4 -2 10 -12 30 -22 43 -11 13 -19 32 -19
42 0 12 -7 19 -19 19 -10 0 -24 7 -31 15 -7 8 -20 15 -30 15 -10 0 -23 6 -29
14 -19 23 -69 27 -144 10 -86 -20 -114 -33 -161 -77 -67 -64 -85 -172 -42
-262 12 -27 30 -56 39 -63 19 -16 57 -87 57 -107 0 -10 -10 -15 -26 -15 -18 0
-38 -12 -61 -37 -30 -31 -40 -36 -76 -35 -23 1 -54 4 -69 8 -15 3 -53 0 -83
-6 -92 -19 -156 -89 -175 -191 -12 -63 -1 -100 35 -119 43 -23 42 -50 -1 -84
-61 -49 -95 -82 -49 -49 50 37 251 143 271 143 20 0 18 -34 -3 -52 -10 -8 -37
-25 -60 -38 -24 -13 -41 -25 -39 -28 13 -12 216 123 306 204 22 20 40 31 40
25 0 -6 -9 -19 -20 -28 -11 -10 -20 -25 -20 -35 0 -9 -11 -29 -25 -44 -20 -21
-23 -30 -13 -37 9 -6 8 -7 -4 -3 -12 4 -24 -3 -35 -21 -27 -40 -70 -82 -158
-153 -99 -80 -176 -159 -220 -225 -36 -53 -55 -123 -37 -134 6 -4 -3 -27 -25
-62 -33 -53 -35 -64 -48 -200 -12 -137 -15 -147 -49 -203 -39 -65 -45 -86 -19
-65 15 12 16 12 9 -6 -22 -56 -28 -91 -34 -217 -7 -127 -10 -139 -32 -163
l-25 -27 -7 24 c-12 36 -1 -90 12 -150 14 -63 46 -103 124 -152 30 -19 57 -40
60 -47 5 -13 -45 -161 -69 -205 -9 -15 -37 -78 -64 -140 -27 -62 -76 -178
-111 -258 -34 -80 -70 -168 -81 -196 -10 -27 -30 -65 -44 -84 -39 -53 -58
-133 -51 -215 4 -38 7 -81 9 -95 2 -23 -2 -25 -38 -28 -43 -2 -165 23 -205 43
-14 7 -48 16 -75 20 -57 8 -114 25 -169 51 -32 16 -38 16 -46 4 -7 -11 -5 -16
5 -18 9 -2 13 -7 10 -12 -3 -4 27 -14 66 -21 39 -7 77 -18 84 -26 7 -7 15 -9
17 -5 2 5 14 5 28 1 20 -6 21 -7 5 -8 -15 -1 -17 -3 -6 -10 7 -5 27 -5 42 -1
30 9 42 -6 14 -16 -25 -10 -17 -24 13 -24 21 0 24 2 12 10 -13 8 -13 10 2 10
9 0 19 -6 21 -12 3 -8 6 -6 6 5 1 24 21 22 21 -3 0 -11 7 -20 15 -20 8 0 15 4
15 10 0 5 10 8 23 6 12 -2 21 -10 21 -19 -2 -24 37 -55 79 -62 36 -7 37 -6 37
23 0 39 19 54 60 46 32 -7 32 -8 27 -51 -6 -53 -12 -61 -37 -45 -23 14 -60 16
-60 3 0 -5 7 -12 16 -15 8 -3 13 -10 10 -15 -4 -5 11 -7 33 -5 22 3 42 0 46
-6 3 -5 12 -10 18 -10 8 0 8 3 -1 9 -18 11 -11 66 8 66 10 0 15 -11 15 -35 0
-19 8 -46 18 -60 15 -21 19 -23 28 -10 9 13 10 12 5 -2 -3 -10 -1 -18 5 -18 6
0 6 -6 0 -18 -7 -14 -6 -25 5 -41 13 -17 13 -25 4 -36 -15 -19 -67 -19 -100
-1 -14 8 -38 12 -57 9 -22 -4 -33 -2 -33 6 0 7 5 9 12 5 7 -4 8 -3 4 4 -4 6
-22 14 -42 18 -29 5 -38 14 -57 53 -12 25 -22 55 -22 66 0 15 -6 19 -25 17
-28 -3 -40 -18 -40 -50 0 -20 -2 -21 -21 -10 -20 13 -21 26 -2 108 l6 25 -27
-24 c-20 -19 -29 -22 -38 -13 -7 7 -20 12 -30 12 -9 0 -27 13 -39 29 -11 15
-42 39 -67 51 -26 13 -54 29 -62 36 -12 10 -23 10 -53 1 -20 -7 -37 -17 -37
-24 0 -12 57 -42 107 -57 26 -8 122 -100 140 -135 18 -32 17 -62 -2 -55 -8 3
-17 15 -21 26 -3 11 -12 17 -20 14 -8 -3 -14 -1 -14 4 0 6 -9 10 -20 10 -24 0
-26 -22 -5 -44 19 -19 19 -26 -1 -26 -8 0 -12 -5 -9 -10 4 -6 11 -8 16 -5 5 4
9 1 9 -4 0 -16 -26 -13 -39 3 -7 8 -22 12 -34 9 -16 -3 -18 -2 -8 5 11 8 11
10 0 15 -8 3 -4 6 9 6 39 2 15 18 -35 25 -112 14 -168 26 -171 35 -2 6 -12 11
-22 11 -21 0 -143 51 -193 80 -28 17 -45 20 -84 14 -38 -5 -52 -3 -62 10 -7 9
-21 16 -30 16 -34 0 -147 42 -168 62 -13 12 -23 16 -23 10 0 -21 -19 -13 -22
10 -2 12 -9 23 -15 26 -16 5 -18 -83 -3 -93 6 -4 6 -15 0 -31 -14 -37 -12 -95
4 -113 15 -17 11 -71 -5 -71 -5 0 -9 -45 -9 -100 l0 -100 2300 0 2300 0 0 60
c0 56 -1 60 -24 60 -26 0 -60 22 -141 94 -55 48 -85 55 -85 19 0 -29 -37 -81
-69 -98 -32 -16 -127 -19 -216 -6 -43 6 -58 15 -103 60 -42 42 -58 52 -81 49
-16 -1 -35 3 -42 9 -8 6 -32 15 -54 19 -23 4 -52 19 -67 35 -35 35 -36 16 -2
-34 28 -41 26 -74 -4 -62 -9 4 -32 11 -50 15 -18 4 -38 12 -45 17 -7 4 1 -4
18 -19 24 -22 28 -29 17 -40 -10 -10 -19 -9 -47 6 -19 11 -35 22 -35 26 0 4
-12 15 -26 25 -25 16 -25 16 -14 -5 14 -26 3 -62 -18 -58 -9 2 -20 18 -24 36
-5 18 -15 32 -24 32 -8 0 -21 15 -29 33 l-14 32 -1 -33 c0 -17 9 -49 20 -69
15 -28 17 -40 8 -50 -9 -11 -15 -10 -34 8 -13 12 -26 31 -30 41 -8 26 -27 11
-20 -17 5 -20 -14 -51 -25 -41 -2 2 -27 6 -56 10 -48 6 -52 5 -55 -16 -3 -26
-31 -27 -59 -2 -9 8 -33 23 -54 34 -33 17 -35 17 -22 2 27 -29 7 -45 -48 -37
-38 6 -50 13 -66 39 -41 66 -40 62 -43 568 0 30 7 46 34 73 l34 35 -13 92
c-15 115 -27 147 -57 154 -20 5 -24 12 -24 47 0 22 8 64 17 93 l17 54 -37 72
c-34 66 -39 87 -52 213 -8 77 -27 200 -42 274 -27 131 -27 134 -8 145 30 17
58 50 85 100 l24 46 -19 57 c-33 97 -27 185 24 328 24 68 43 139 43 165 3 145
-15 415 -32 502 -25 121 -27 259 -4 294 36 55 -7 191 -79 248 -30 24 -50 31
-97 34 -33 2 -60 8 -60 13 0 4 9 32 21 61 12 29 38 103 59 163 70 199 96 267
107 273 19 12 83 126 83 148 0 26 -18 42 -58 54 -24 6 -34 4 -46 -9z m-1 -161
c3 -5 1 -10 -4 -10 -6 0 -11 5 -11 10 0 6 2 10 4 10 3 0 8 -4 11 -10z m-173
-72 c-7 -7 -12 -8 -12 -2 0 6 3 14 7 17 3 4 9 5 12 2 2 -3 -1 -11 -7 -17z
m104 7 c-3 -8 -9 -22 -12 -30 -10 -25 20 -8 39 23 9 15 17 22 17 16 0 -17 -33
-55 -50 -57 -22 -4 -128 -77 -134 -92 -3 -10 0 -12 11 -8 13 5 15 2 10 -16 -7
-28 -1 -22 22 20 19 34 46 58 56 47 3 -3 -3 -29 -15 -57 -18 -46 -18 -52 -4
-49 18 3 42 -27 31 -38 -4 -4 -18 -2 -31 4 -27 12 -24 17 -66 -100 -27 -73
-40 -84 -78 -64 -53 28 -55 37 -20 105 20 39 43 68 60 77 30 16 29 34 -2 34
-23 0 -27 13 -20 64 4 31 10 41 23 40 9 -1 17 4 17 11 0 12 60 64 90 77 8 4
26 7 39 7 17 1 21 -3 17 -14z m24 -75 c0 -5 -10 -10 -22 -9 -22 0 -22 1 -3 9
11 5 21 9 23 9 1 1 2 -3 2 -9z m-22 -65 c-9 -9 -30 14 -23 25 6 9 10 8 17 -4
6 -10 8 -19 6 -21z m-18 -35 c0 -5 -7 -7 -15 -4 -8 4 -12 10 -9 15 6 11 24 2
24 -11z m-202 -72 c-12 -23 -13 -22 -18 12 -3 23 0 41 10 53 14 17 15 16 18
-12 2 -17 -3 -40 -10 -53z m-94 -10 c-4 -6 -6 -35 -5 -64 l2 -52 -41 -7 c-38
-6 -110 -1 -152 11 -35 10 -17 21 33 20 44 -2 55 2 79 26 16 15 36 28 44 28 9
0 16 8 16 18 0 20 8 32 22 32 5 0 6 -5 2 -12z m254 -21 c2 -11 -2 -14 -17 -10
-12 3 -17 11 -14 19 7 18 27 13 31 -9z m-20 -39 c18 -18 15 -28 -8 -28 -13 0
-20 7 -20 20 0 23 10 26 28 8z m-14 -57 c3 -4 3 -11 0 -14 -8 -8 -34 3 -34 14
0 11 27 12 34 0z m-20 -46 c4 -13 2 -14 -14 -5 -23 13 -26 20 -6 20 8 0 16 -7
20 -15z m-14 -45 c0 -5 -9 -6 -19 -3 -12 3 -17 11 -14 19 4 11 9 12 19 3 8 -6
14 -15 14 -19z m-14 -47 c-8 -8 -36 5 -36 17 0 7 6 7 21 0 11 -7 18 -14 15
-17z m233 -466 c6 -8 22 -53 36 -100 20 -72 25 -109 25 -206 0 -80 -4 -127
-13 -145 -14 -25 -27 -25 -27 1 0 19 -33 93 -42 93 -4 0 -16 -9 -26 -20 l-19
-21 -8 23 c-14 46 -16 54 -22 130 -6 81 3 133 36 212 21 47 39 57 60 33z
m-903 -79 c-3 -13 -6 -29 -6 -36 0 -7 -4 -11 -9 -7 -6 3 -13 -11 -17 -31 -8
-43 -51 -117 -77 -133 -12 -8 -23 -8 -37 -1 -10 5 -32 10 -49 10 -62 0 -31 48
90 140 18 14 44 37 58 53 30 34 56 36 47 5z m718 -120 c4 -34 23 -101 41 -148
l34 -87 -15 -72 c-12 -59 -13 -86 -4 -148 12 -78 5 -213 -11 -213 -4 0 -12 17
-17 38 -6 20 -17 66 -26 102 -9 36 -24 101 -33 145 -9 44 -20 82 -23 85 -19
14 -40 79 -40 120 0 69 60 257 79 246 5 -3 12 -34 15 -68z m-718 -253 c-5 -20
-53 -55 -75 -55 -6 0 -11 7 -11 16 0 22 45 145 67 187 l18 32 3 -80 c2 -44 1
-89 -2 -100z m-110 15 c8 0 14 -4 14 -10 0 -5 -5 -10 -11 -10 -5 0 -8 -4 -4
-10 9 -15 -23 -82 -37 -78 -22 7 -22 87 -1 108 10 9 20 13 21 9 2 -5 10 -9 18
-9z m257 -32 c-4 -7 -32 -51 -63 -98 -72 -109 -122 -207 -155 -305 -35 -106
-68 -176 -93 -199 -21 -18 -22 -18 -73 8 -49 24 -53 25 -82 9 -18 -9 -46 -32
-64 -52 -28 -32 -32 -34 -39 -17 -15 39 22 216 62 296 21 41 30 50 67 70 28
14 74 61 112 115 11 16 26 34 33 41 6 7 12 16 12 21 0 10 75 64 115 82 78 35
184 53 168 29z m314 -134 c-3 -3 -12 -4 -19 -1 -8 3 -5 6 6 6 11 1 17 -2 13
-5z m6 -31 c-7 -2 -19 -2 -25 0 -7 3 -2 5 12 5 14 0 19 -2 13 -5z m214 -25
c-3 -8 -6 -5 -6 6 -1 11 2 17 5 13 3 -3 4 -12 1 -19z m-110 -30 c-3 -7 -5 -2
-5 12 0 14 2 19 5 13 2 -7 2 -19 0 -25z m-60 -30 c-3 -8 -6 -5 -6 6 -1 11 2
17 5 13 3 -3 4 -12 1 -19z m167 -24 c3 -8 2 -12 -4 -9 -6 3 -10 10 -10 16 0
14 7 11 14 -7z m-7 -46 c-3 -8 -6 -5 -6 6 -1 11 2 17 5 13 3 -3 4 -12 1 -19z
m20 -25 c-3 -10 -5 -4 -5 12 0 17 2 24 5 18 2 -7 2 -21 0 -30z m-136 -16 c-10
-9 -11 -8 -5 6 3 10 9 15 12 12 3 -3 0 -11 -7 -18z m12 -45 c-3 -12 -9 -19
-14 -16 -5 3 -3 14 3 24 15 24 19 21 11 -8z m-29 -18 c3 -8 2 -12 -4 -9 -6 3
-10 10 -10 16 0 14 7 11 14 -7z m123 -206 c-3 -8 -6 -5 -6 6 -1 11 2 17 5 13
3 -3 4 -12 1 -19z m-50 -245 c-3 -10 -5 -4 -5 12 0 17 2 24 5 18 2 -7 2 -21 0
-30z m-320 -75 c-3 -8 -6 -5 -6 6 -1 11 2 17 5 13 3 -3 4 -12 1 -19z m83 -84
c11 -38 28 -109 36 -159 9 -49 25 -107 36 -129 19 -36 20 -51 14 -162 -8 -138
-6 -146 57 -211 l40 -42 -26 -31 c-26 -30 -27 -34 -22 -138 5 -118 8 -124 77
-143 49 -13 62 -38 54 -108 -5 -45 -2 -71 19 -130 26 -78 32 -126 15 -136 -15
-9 -12 -36 5 -55 8 -9 16 -41 17 -75 3 -59 3 -60 -22 -57 -14 2 -35 13 -47 25
-28 25 -29 18 -3 -28 11 -20 20 -40 20 -45 0 -15 -32 -12 -54 5 -11 8 -30 12
-46 8 -18 -3 -37 1 -51 11 -13 9 -35 16 -50 16 -15 0 -29 6 -32 14 -3 8 -35
19 -78 27 -44 8 -82 21 -97 34 -22 19 -25 29 -26 106 0 46 3 118 8 159 5 41
12 102 15 135 6 59 6 60 44 70 22 6 43 19 49 29 16 29 -10 244 -33 278 -20 28
-20 28 7 84 21 45 25 63 19 92 -10 47 -11 94 -3 157 27 201 30 250 23 365 -7
141 2 150 35 34z m-63 19 c-3 -10 -5 -2 -5 17 0 19 2 27 5 18 2 -10 2 -26 0
-35z m-60 5 c-3 -8 -6 -5 -6 6 -1 11 2 17 5 13 3 -3 4 -12 1 -19z m41 -9 c-3
-8 -7 -3 -11 10 -4 17 -3 21 5 13 5 -5 8 -16 6 -23z m9 -51 c-3 -8 -6 -5 -6 6
-1 11 2 17 5 13 3 -3 4 -12 1 -19z m530 0 c-3 -8 -6 -5 -6 6 -1 11 2 17 5 13
3 -3 4 -12 1 -19z m-520 -295 c-3 -10 -5 -4 -5 12 0 17 2 24 5 18 2 -7 2 -21
0 -30z m-26 -44 c-5 -13 -10 -19 -10 -12 -1 15 10 45 15 40 3 -2 0 -15 -5 -28z
m-460 -198 c34 -34 39 -44 39 -86 0 -38 -6 -54 -29 -81 -22 -25 -31 -47 -36
-91 -4 -32 -11 -76 -16 -98 -12 -58 -11 -113 4 -122 6 -4 34 -10 62 -13 56 -6
47 13 74 -151 13 -79 6 -125 -23 -144 -18 -12 -27 -12 -66 2 -26 9 -84 18
-135 19 -49 2 -106 8 -125 13 -19 6 -56 13 -82 16 -54 7 -63 28 -27 61 46 41
102 136 107 183 3 25 42 138 88 251 105 262 113 280 120 280 4 0 24 -17 45
-39z m-1657 -818 c12 -16 14 -23 5 -18 -23 13 -49 38 -49 46 0 15 24 -1 44
-28z m-114 -19 c0 -8 -4 -12 -10 -9 -5 3 -10 10 -10 16 0 5 5 9 10 9 6 0 10
-7 10 -16z m184 -50 c9 -8 16 -20 16 -26 0 -13 -42 14 -48 30 -5 17 14 15 32
-4z m254 -44 c6 0 12 -3 12 -7 0 -14 -60 -8 -65 6 -4 10 1 12 17 7 13 -3 29
-6 36 -6z m147 -37 c28 -21 31 -38 9 -51 -12 -7 -5 -12 30 -22 64 -18 61 -38
-4 -33 -39 3 -50 1 -50 -11 0 -26 -19 -28 -60 -5 -23 13 -40 30 -40 40 0 10
-8 22 -17 27 -17 10 -26 53 -12 62 4 3 33 7 64 8 40 2 63 -3 80 -15z m1182
-12 c0 -11 -5 -17 -9 -15 -11 7 -10 34 1 34 6 0 9 -9 8 -19z m-180 -17 c-3 -3
-12 -4 -19 -1 -8 3 -5 6 6 6 11 1 17 -2 13 -5z"/>
<path d="M554 202 c3 -5 0 -13 -6 -15 -8 -3 -6 -6 5 -6 19 -1 23 14 5 25 -6 4
-8 3 -4 -4z"/>
<path d="M1596 3260 c-25 -27 -46 -55 -45 -62 0 -7 5 -5 12 6 7 11 29 39 51
63 53 59 39 54 -18 -7z"/>
<path d="M1574 3135 c11 -8 22 -12 25 -9 6 6 -19 24 -34 24 -5 -1 -1 -7 9 -15z"/>
<path d="M1612 3070 c0 -14 2 -19 5 -12 2 6 2 18 0 25 -3 6 -5 1 -5 -13z"/>
<path d="M1526 2343 c-27 -92 -46 -173 -45 -198 1 -25 3 -22 11 15 5 25 18 78
29 119 11 40 18 75 15 78 -2 2 -7 -4 -10 -14z"/>
<path d="M1472 2080 c0 -14 2 -19 5 -12 2 6 2 18 0 25 -3 6 -5 1 -5 -13z"/>
<path d="M100 742 c0 -9 67 -41 120 -57 14 -4 34 -14 45 -21 11 -8 25 -14 33
-14 7 0 26 -10 42 -22 23 -16 27 -25 19 -35 -9 -10 -8 -13 1 -13 27 0 -2 -14
-36 -17 -22 -2 -43 2 -53 10 -20 17 -51 29 -51 19 1 -24 33 -46 69 -47 24 0
37 -4 34 -11 -4 -12 61 -74 78 -74 5 0 12 7 16 16 5 13 8 13 15 2 6 -8 7 0 3
22 -5 24 -4 32 3 25 6 -5 12 -19 14 -29 5 -30 28 -32 28 -2 0 22 4 26 30 26
38 0 80 20 80 38 0 8 6 12 15 8 8 -3 25 -2 37 3 l23 8 -25 9 c-14 4 -37 9 -51
9 -14 1 -39 6 -55 12 -115 43 -221 71 -236 62 -7 -4 -15 -4 -18 0 -3 5 -39 23
-80 40 -41 18 -81 35 -87 38 -7 3 -13 1 -13 -5z m370 -166 c0 -3 -4 -8 -10
-11 -5 -3 -10 -1 -10 4 0 6 5 11 10 11 6 0 10 -2 10 -4z"/>
<path d="M0 677 l0 -63 47 -17 c27 -9 56 -17 66 -17 10 0 36 -10 57 -22 21
-13 42 -19 46 -16 9 10 -37 78 -52 78 -7 0 -14 7 -18 15 -3 8 -16 15 -28 15
-35 0 -68 11 -62 21 6 11 -23 56 -42 63 -11 4 -14 -7 -14 -57z"/>
<path d="M770 345 c0 -8 7 -15 15 -15 8 0 15 4 15 9 0 5 -7 11 -15 15 -9 3
-15 0 -15 -9z"/>
</g>
</svg>
