<?xml version="1.0" standalone="no"?>
<!DOCTYPE svg PUBLIC "-//W3C//DTD SVG 20010904//EN"
 "http://www.w3.org/TR/2001/REC-SVG-20010904/DTD/svg10.dtd">
<svg version="1.0" xmlns="http://www.w3.org/2000/svg"
 width="212.000000pt" height="164.000000pt" viewBox="0 0 212.000000 164.000000"
 preserveAspectRatio="xMidYMid meet">

<g transform="translate(0.000000,164.000000) scale(0.100000,-0.100000)"
fill="#000000" stroke="none">
<path d="M1073 1487 c16 -43 18 -59 8 -53 -6 4 -11 14 -11 22 0 16 -16 19 -25
4 -3 -5 -15 -10 -27 -10 -18 0 -20 -5 -16 -45 2 -33 -1 -46 -12 -49 -8 -2 28
-4 80 -5 52 0 100 3 106 7 14 9 27 62 15 62 -5 0 -11 6 -14 13 -2 6 -2 1 0
-12 4 -21 2 -22 -11 -9 -9 10 -13 25 -9 39 3 13 2 21 -2 16 -5 -4 -15 -1 -24
7 -22 18 -64 28 -58 13z"/>
<path d="M702 1348 c6 -17 92 -49 144 -53 23 -1 52 -9 65 -16 38 -22 299 -16
426 9 57 12 111 26 120 32 16 10 16 11 -2 4 -31 -11 -174 -16 -150 -5 13 7
-32 10 -135 11 -85 0 -179 3 -209 5 -30 2 -49 0 -42 -5 22 -13 -4 -21 -46 -14
-21 3 -40 7 -43 9 -3 2 -25 6 -50 10 -24 4 -53 11 -63 17 -15 8 -18 7 -15 -4z"/>
<path d="M345 1225 c-5 -2 -22 -6 -37 -9 -33 -7 -84 -50 -102 -85 -19 -38 -29
-84 -16 -76 9 6 14 -10 13 -42 -1 -7 3 -13 7 -13 4 0 2 -17 -5 -37 -7 -21 -10
-40 -7 -43 4 -3 7 -34 6 -70 0 -43 5 -73 15 -90 10 -15 11 -21 4 -17 -8 5 -13
3 -13 -5 0 -7 -5 -44 -10 -83 -5 -38 -9 -99 -9 -135 -1 -152 -2 -186 -6 -227
-2 -23 1 -45 6 -48 5 -4 9 -20 9 -36 0 -17 5 -40 11 -51 9 -16 8 -19 -3 -12
-11 6 -11 5 1 -9 12 -16 8 -22 -12 -18 -22 4 37 -59 70 -75 36 -18 77 -19 783
-21 437 -1 766 2 795 7 70 14 124 71 126 132 1 24 3 61 4 83 2 22 6 210 10
417 9 413 7 426 -50 491 -27 30 -95 64 -95 47 0 -6 -11 -4 -23 5 -21 13 -71
15 -383 10 -423 -6 -406 -5 -422 -24 -10 -14 -12 -14 -10 -1 2 8 -3 14 -11 12
-7 -1 -18 2 -25 7 -6 5 -67 10 -136 10 -69 1 -204 4 -300 6 -96 2 -179 2 -185
0z m605 -35 c-8 -5 -19 -10 -25 -10 -5 0 -3 5 5 10 8 5 20 10 25 10 6 0 3 -5
-5 -10z m937 -354 c-4 -111 -7 -223 -7 -251 0 -27 -4 -45 -8 -39 -4 7 -5 68
-2 135 3 68 5 179 5 246 0 69 4 119 9 115 5 -3 6 -90 3 -206z m40 -8 c-2 -29
-3 -6 -3 52 0 58 1 81 3 53 2 -29 2 -77 0 -105z m-1650 100 c-3 -7 -5 -2 -5
12 0 14 2 19 5 13 2 -7 2 -19 0 -25z m0 -50 c-3 -7 -5 -2 -5 12 0 14 2 19 5
13 2 -7 2 -19 0 -25z m1488 -240 c-4 -95 -10 -175 -12 -178 -3 -3 -3 74 1 170
3 96 6 176 6 178 0 1 3 2 6 2 3 0 3 -78 -1 -172z m-1338 120 c-3 -7 -5 -2 -5
12 0 14 2 19 5 13 2 -7 2 -19 0 -25z m413 16 c77 -23 109 -50 109 -94 0 -41
-6 -57 -36 -94 -21 -27 -24 -27 -70 -17 -33 7 -70 7 -121 -1 -83 -12 -86 -10
-122 70 -34 75 -24 106 45 135 51 21 127 21 195 1z m668 -18 c16 -8 43 -29 62
-46 29 -27 32 -35 27 -69 -5 -41 -35 -112 -51 -123 -22 -15 -30 -12 -93 42
-25 21 -68 21 -108 0 -21 -11 -44 -20 -51 -20 -21 0 -66 97 -60 132 3 18 10
34 15 36 6 2 11 10 11 17 0 8 19 19 43 26 23 6 51 15 62 20 27 12 107 4 143
-15z m-1091 -128 c-3 -7 -5 -2 -5 12 0 14 2 19 5 13 2 -7 2 -19 0 -25z m1500
-15 c-3 -10 -5 -4 -5 12 0 17 2 24 5 18 2 -7 2 -21 0 -30z m-40 -236 c-2 -23
-3 -1 -3 48 0 50 1 68 3 42 2 -26 2 -67 0 -90z m-10 -139 c-2 -18 -4 -4 -4 32
0 36 2 50 4 33 2 -18 2 -48 0 -65z"/>
<path d="M129 785 l-3 -240 -6 155 c-3 85 -7 131 -8 101 -1 -30 -4 -52 -6 -50
-2 2 -7 49 -11 104 -4 55 -9 102 -11 104 -2 2 -4 -76 -4 -174 0 -202 -8 -233
-12 -44 -4 221 -15 210 -15 -16 -1 -121 -2 -224 -3 -230 -5 -22 0 -46 9 -41 5
4 12 0 14 -6 3 -8 6 -4 7 7 2 14 4 11 10 -10 l7 -30 10 35 11 35 1 -35 c1 -32
3 -33 13 -15 15 25 23 481 10 545 -8 34 -11 -13 -13 -195z m-52 -207 c-3 -8
-6 -5 -6 6 -1 11 2 17 5 13 3 -3 4 -12 1 -19z m-10 -100 c-3 -8 -6 -5 -6 6 -1
11 2 17 5 13 3 -3 4 -12 1 -19z"/>
<path d="M2027 693 c-3 -120 -9 -229 -12 -243 -6 -22 -5 -23 5 -7 6 10 14 43
17 72 3 30 9 55 13 55 7 0 -7 -107 -16 -122 -3 -4 -1 -8 4 -8 19 0 24 49 27
240 2 147 1 168 -4 85 -6 -90 -7 -98 -10 -45 -2 73 -12 184 -16 188 -1 1 -5
-96 -8 -215z"/>
</g>
</svg>
